<?xml version="1.0" standalone="no"?>
<!DOCTYPE svg PUBLIC "-//W3C//DTD SVG 20010904//EN"
 "http://www.w3.org/TR/2001/REC-SVG-20010904/DTD/svg10.dtd">
<svg version="1.0" xmlns="http://www.w3.org/2000/svg"
 width="598.000000pt" height="598.000000pt" viewBox="0 0 598.000000 598.000000"
 preserveAspectRatio="xMidYMid meet">
<metadata>
Created by potrace 1.14, written by Peter Selinger 2001-2017
</metadata>
<g transform="translate(0.000000,598.000000) scale(0.100000,-0.100000)"
fill="#000000" stroke="none">
<path d="M2788 5975 c-2 -1 -37 -6 -78 -10 -111 -10 -209 -24 -280 -40 -14 -3
-38 -8 -55 -11 -54 -9 -219 -53 -265 -69 -25 -9 -52 -18 -61 -20 -47 -10 -308
-120 -409 -173 -85 -44 -177 -97 -207 -119 -17 -12 -36 -23 -42 -23 -5 0 -16
-6 -23 -13 -7 -7 -50 -39 -95 -70 -46 -32 -88 -64 -95 -70 -7 -7 -47 -39 -88
-72 -95 -76 -300 -281 -376 -376 -32 -41 -61 -76 -65 -79 -16 -14 -154 -217
-204 -299 -60 -99 -185 -349 -185 -369 0 -7 -5 -12 -12 -12 -6 0 -9 -3 -5 -6
3 -3 -3 -25 -13 -48 -39 -92 -122 -363 -135 -441 -2 -11 -4 -21 -5 -22 -4 -4
-6 -14 -15 -68 -5 -27 -10 -52 -10 -55 -1 -3 -5 -32 -9 -65 -5 -33 -10 -69
-12 -80 -26 -129 -25 -574 1 -775 2 -14 4 -27 5 -30 1 -3 2 -8 1 -12 0 -3 7
-41 15 -85 8 -43 18 -89 20 -103 3 -14 14 -59 25 -100 11 -41 22 -85 25 -98
11 -52 80 -244 126 -352 95 -222 215 -428 363 -625 106 -140 145 -185 275
-315 106 -105 149 -144 270 -240 120 -95 156 -120 169 -120 5 0 11 -3 13 -7 4
-9 82 -62 118 -80 14 -7 41 -23 60 -34 73 -45 279 -145 370 -179 30 -11 64
-24 75 -29 34 -15 201 -68 240 -77 6 -1 37 -9 70 -17 33 -9 75 -19 94 -22 19
-3 37 -8 40 -10 4 -2 29 -6 56 -10 28 -4 61 -8 75 -11 153 -23 232 -28 460
-28 218 1 277 4 405 24 33 5 78 12 100 15 104 16 362 84 475 126 373 139 651
303 965 569 66 56 236 231 306 315 85 101 199 252 207 275 3 8 9 17 13 20 12
9 124 201 174 300 97 194 204 493 240 670 2 8 10 49 18 90 19 90 26 138 33
205 3 28 8 66 11 85 10 72 12 510 1 510 -7 0 -7 5 1 13 6 8 8 16 5 19 -3 3 -7
21 -9 39 -2 19 -6 60 -10 91 -5 48 -12 94 -30 193 -18 100 -55 247 -75 300 -4
11 -20 58 -35 105 -15 47 -33 99 -40 115 -7 17 -21 50 -31 75 -27 66 -124 261
-144 290 -10 14 -17 27 -17 30 2 13 -203 320 -214 320 -5 0 -9 5 -9 10 0 6
-21 37 -48 68 -26 31 -56 68 -67 81 -28 34 -245 251 -280 281 -17 14 -55 46
-85 71 -63 53 -250 188 -295 213 -16 9 -51 30 -77 46 -73 45 -203 111 -321
164 -157 69 -305 118 -517 171 -71 17 -105 23 -112 19 -4 -3 -8 -1 -8 3 0 5
-8 9 -17 9 -18 1 -91 10 -148 20 -80 13 -137 16 -352 19 -127 2 -233 2 -235 0z"/>
<path d="M5039 395 c-8 -37 -2 -50 26 -51 83 -4 75 13 73 -146 l-2 -143 27 1
c15 1 31 2 36 3 5 0 9 62 9 137 0 94 4 139 12 144 6 4 29 6 51 4 37 -3 39 -2
39 27 l0 29 -135 0 c-74 0 -135 -2 -136 -5z"/>
<path d="M5354 230 c0 -94 4 -171 8 -171 4 -1 15 -1 23 -1 8 0 19 0 24 1 5 0
9 27 9 58 0 32 1 87 2 123 1 56 3 61 11 35 5 -16 11 -39 14 -50 2 -11 7 -31
10 -45 4 -14 10 -41 14 -60 11 -51 22 -65 54 -66 27 0 34 12 53 91 1 6 7 30
13 55 7 25 14 59 17 75 3 17 8 32 10 34 4 5 7 -99 4 -191 -1 -35 3 -58 9 -59
14 -2 39 -2 49 0 4 0 8 77 7 171 l0 170 -50 0 -51 0 -16 -52 c-9 -29 -22 -79
-29 -110 -13 -63 -24 -73 -32 -30 -3 15 -13 54 -22 87 -17 59 -23 82 -24 98
-1 4 -25 7 -54 7 l-53 0 0 -170z"/>
</g>
</svg>
